<svg xmlns="http://www.w3.org/2000/svg" width="100%" height="100%" viewBox="0 0 1920 1080"><style>
@keyframes a0_t { 0% { transform: translate(1861.5px,558px) rotate(0deg) scaleX(1.1) translate(-662.7px,-726px); animation-timing-function: cubic-bezier(.4,0,.6,1); } 46.667% { transform: translate(1861.5px,558px) rotate(450deg) scaleX(1.1) translate(-662.7px,-726px); } 100% { transform: translate(1861.5px,558px) rotate(450deg) scaleX(1.1) translate(-662.7px,-726px); } }
@keyframes a0_h { 0% { height: 1452px; } 70% { height: 1068px; } 100% { height: 1068px; } }
@keyframes a1_t { 0% { transform: translate(52px,28px); } 46.667% { transform: translate(52px,604px); } 100% { transform: translate(52px,604px); } }
@keyframes a2_t { 0% { transform: translate(52px,28px); } 46.667% { transform: translate(52px,604px); } 100% { transform: translate(52px,604px); } }
@keyframes a3_t { 0% { transform: translate(52px,28px); } 10% { transform: translate(52px,96.5px); animation-timing-function: cubic-bezier(0,0,1,1); } 40% { transform: translate(51.6px,361px); animation-timing-function: cubic-bezier(0,0,1,1); } 70% { transform: translate(56.7px,625px); } 100% { transform: translate(56.7px,625px); } }
</style><rect width="1325.4" height="1452" transform="translate(1003.5,558) scale(1.617,1) translate(-662.7,-726)"/><path fill="#fff" d="M475.3 551h-100.3l-28.2-33.9c-32.8 27.3-70.3 40.9-112.4 40.9c-37.5 0-68.3-11-92.4-32.9c-24.1-22-36.1-50.2-36.1-84.7c0-25.6 6.6-48.3 19.8-68.1c13.2-19.8 31.5-39.3 55-58.5c-32-39.6-48-76.9-48-111.8c0-32.4 10.5-58.1 31.3-77c20.9-19 48-28.5 81.2-28.5c33.3 0 59.8 9.5 79.6 28.5c19.8 18.9 29.7 42.7 29.7 71.2c0 23-6.3 44.2-18.8 63.6c-12.6 19.4-30.2 39.3-52.8 59.8l60.8 73.5c9.8-24.3 15.3-50.3 16.6-78h87.5c-5.5 51.2-22.3 98.7-50.5 142.6Zm-234.6-62c19.6 0 39.5-9.6 59.5-28.8l-72.9-89.5c-24.3 24.3-36.4 46-36.4 65.2c0 13.7 4.4 25.9 13.1 36.8c8.7 10.8 21 16.3 36.7 16.3Zm-31.3-284.5c0 18.8 9.8 39.9 29.4 63.3c25.6-22.6 38.4-44.3 38.4-65.2c0-11.1-2.8-20.5-8.3-28.4c-5.6-7.9-13.7-11.8-24.3-11.8c-11.1 0-19.7 4.1-25.9 12.4c-6.2 8.3-9.3 18.2-9.3 29.7Z" clip-rule="evenodd" fill-rule="evenodd"/><rect width="1325.4" height="1452" fill="#fff" transform="translate(1861.5,558) scale(1.102,1) translate(-662.7,-726)" style="animation: 3s linear both a0_t, 3s linear both a0_h;"/><rect width="574" height="42" transform="translate(339,49) translate(-287,-21)" style="animation: 3s linear both a1_t;"/><rect width="574" height="42" transform="translate(339,49) translate(-287,-21)" style="animation: 3s linear both a2_t;"/><rect width="574" height="21" transform="translate(339,49) translate(-287,-21)" style="animation: 3s linear both a3_t;"/></svg>