<?xml version="1.0" encoding="UTF-8" standalone="no"?><!DOCTYPE svg PUBLIC "-//W3C//DTD SVG 1.1//EN" "http://www.w3.org/Graphics/SVG/1.1/DTD/svg11.dtd"><svg width="100%" height="100%" viewBox="0 0 800 600" version="1.1" xmlns="http://www.w3.org/2000/svg" xmlns:xlink="http://www.w3.org/1999/xlink" xml:space="preserve" xmlns:serif="http://www.serif.com/" style="fill-rule:evenodd;clip-rule:evenodd;stroke-linejoin:round;stroke-miterlimit:1.41421;"><path d="M283.772,276.477c-20.816,-36.16 -31.186,-68.893 -31.186,-98.169c0,-42.481 15.118,-77.841 45.354,-106.078c30.237,-28.238 70.344,-42.356 120.322,-42.356c45.979,0 80.964,11.619 104.953,34.859c23.99,23.24 35.984,50.853 35.984,82.838c0,29.487 -9.995,56.725 -29.986,81.714c-12.597,15.746 -27.973,31.492 -46.084,47.192l-199.357,0Z" style="fill:#00fa92;"/><path d="M483.129,276.477c-10.698,9.289 -22.31,18.532 -34.88,27.775l28.487,40.482c8.996,-17.493 16.493,-36.984 22.49,-58.474l144.685,0c-16.492,58.973 -46.979,114.948 -91.459,167.925l75.716,108.702l-155.18,0l-17.243,-26.239c-39.482,22.99 -81.713,34.485 -126.693,34.485c-47.479,0 -84.838,-12.619 -112.076,-37.858c-27.238,-25.239 -40.856,-56.85 -40.856,-94.833c0,-32.985 9.87,-61.973 29.611,-86.961c19.742,-24.989 46.605,-48.479 80.59,-70.469l-2.549,-4.535l199.357,0Z"/><path d="M346.294,459.433c13.494,0 28.987,-5.748 46.479,-17.243l-42.731,-64.471c-21.99,19.491 -32.985,36.983 -32.985,52.477c0,8.496 2.749,15.493 8.246,20.99c5.498,5.498 12.495,8.247 20.991,8.247Z" style="fill:#00fa92;"/><path d="M386.776,148.321c-5.498,8.496 -8.246,18.242 -8.246,29.237c0,10.995 3.748,23.989 11.245,38.983c26.988,-19.492 40.482,-37.984 40.482,-55.476c0,-16.992 -6.747,-25.488 -20.241,-25.488c-9.496,0 -17.243,4.248 -23.24,12.744Z"/></svg>