<svg xmlns="http://www.w3.org/2000/svg" width="100%" height="100%" viewBox="0 0 1920 1080" style="white-space: pre;"><style>
@keyframes a0_f { 0% { fill: #402f01; } 25.833% { fill: #32260d; } 55% { fill: #501818; } 100% { fill: #402f01; } }
@keyframes a1_t { 0% { transform: translate(918.5px,782.7px); } 1.12% { transform: translate(964.6px,794.2px); } 2.24% { transform: translate(1010.9px,804.4px); } 4.479% { transform: translate(1104.2px,821.1px); } 8.958% { transform: translate(1292.9px,837.1px); } 17.917% { transform: translate(1666.9px,786.4px); } 26.875% { transform: translate(2004.9px,618.4px); } 31.354% { transform: translate(2151.3px,498.2px); } 33.594% { transform: translate(2218.4px,431.3px); } 34.714% { transform: translate(2250.5px,396.4px); } 35.833% { transform: translate(2281.6px,360.6px); } 58.333% { transform: translate(880.1px,321.2px); } 69.583% { transform: translate(182.4px,252.7px); } 75.208% { transform: translate(-160.6px,181.7px); } 78.021% { transform: translate(-321px,112.8px); } 79.427% { transform: translate(-375.1px,46.4px); } 80.13% { transform: translate(-371.3px,3.4px); } 80.482% { transform: translate(-361.3px,-16px); } 80.833% { transform: translate(-348.2px,-33.6px); } 100% { transform: translate(918.5px,782.7px); } }
@keyframes a2_t { 0% { transform: translate(779.2px,-59.6px); } 39.167% { transform: translate(3283.2px,-59.6px); } 70.833% { transform: translate(1355.4px,-675.6px); } 83.333% { transform: translate(-876.6px,-2.9px); } 100% { transform: translate(779.2px,-59.6px); } }
@keyframes a3_t { 0% { transform: translate(1183px,447.3px); } 37.5% { transform: translate(1183px,447.3px); } 37.812% { transform: translate(1167.1px,433.9px); } 38.125% { transform: translate(1151.8px,420px); } 38.75% { transform: translate(1122.5px,390.8px); } 40% { transform: translate(1068.8px,327.9px); } 42.5% { transform: translate(967.3px,197.2px); } 47.5% { transform: translate(701px,7.2px); } 52.5% { transform: translate(377.3px,-56.7px); } 55% { transform: translate(211.8px,-63.1px); } 56.25% { transform: translate(129px,-62.4px); } 57.5% { transform: translate(46.2px,-59.6px); } 73.333% { transform: translate(1795.7px,999.4px); } 100% { transform: translate(1183px,447.3px); } }
@keyframes a4_f { 0% { fill: #fff350; } 19.167% { fill: #dbcc08; } 51.667% { fill: #0063ff; } 66.667% { fill: #7ac457; } 95.833% { fill: #fff350; } 100% { fill: #fff350; } }
@keyframes a5_f { 0% { fill: #402f01; } 8.333% { fill: #7b7b2e; } 55.833% { fill: #7b7b2e; } 75.833% { fill: #7b7b2e; } 93.333% { fill: #7b7b2e; } 100% { fill: #7b7b2e; } }
</style><rect width="1325.4" height="1452" fill="#402f01" transform="translate(1003.5,558) scale(1.617,1) translate(-662.7,-726)" style="animation: 12s linear infinite both a0_f;"/><ellipse cx="817.3" cy="1431.6" rx="59.6" ry="59.6" fill="#f49341" style="mix-blend-mode: difference;"/><ellipse cx="457.2" cy="132.5" rx="59.6" ry="59.6" fill="#f49341" style="mix-blend-mode: difference;"/><ellipse cx="554.8" cy="566.6" rx="59.6" ry="59.6" fill="#e9dc55" style="mix-blend-mode: difference;"/><ellipse cx="687.2" cy="959" rx="59.6" ry="59.6" fill="#402f01" style="mix-blend-mode: difference;"/><ellipse cx="-288.6" cy="164.6" rx="59.6" ry="59.6" fill="#e9dc55" style="mix-blend-mode: difference;"/><ellipse cx="576.4" cy="401.6" rx="59.6" ry="59.6" fill="#e9dc55" style="mix-blend-mode: difference;"/><ellipse cx="1513" cy="566.6" rx="59.6" ry="59.6" fill="#402f01" style="mix-blend-mode: difference;"/><ellipse cx="1727.4" cy="566.6" rx="59.6" ry="59.6" fill="#492571" style="mix-blend-mode: difference;"/><ellipse cx="174.2" cy="401.6" rx="59.6" ry="59.6" fill="#402f01" style="mix-blend-mode: difference;"/><ellipse cx="1703.8" cy="915.8" rx="59.6" ry="59.6" fill="#f49341" style="mix-blend-mode: difference;"/><ellipse cx="495.2" cy="927.5" rx="59.6" ry="59.6" fill="#e9dc55" style="mix-blend-mode: difference;"/><ellipse cx="1667.8" cy="506.9" rx="59.6" ry="59.6" fill="#e9dc55" style="mix-blend-mode: difference;"/><ellipse cx="-229" cy="790.3" rx="59.6" ry="59.6" fill="#e9dc55" style="mix-blend-mode: difference;"/><ellipse cx="671.9" cy="704.7" rx="59.6" ry="59.6" fill="#e9dc55" style="mix-blend-mode: difference;"/><ellipse cx="1640.9" cy="401.6" rx="59.6" ry="59.6" fill="#f49341" style="mix-blend-mode: difference;"/><ellipse cx="1855.4" cy="401.6" rx="59.6" ry="59.6" fill="#402f01" style="mix-blend-mode: difference;"/><ellipse cx="46.2" cy="216.6" rx="59.6" ry="59.6" fill="#e9dc55" style="mix-blend-mode: difference;"/><ellipse cx="1644.2" cy="927.5" rx="59.6" ry="59.6" fill="#e9dc55" style="mix-blend-mode: difference;"/><ellipse cx="1272.2" cy="927.5" rx="59.6" ry="59.6" fill="#d94bbf" style="mix-blend-mode: difference;"/><ellipse cx="174.2" cy="959" rx="59.6" ry="59.6" fill="#f49341" style="mix-blend-mode: difference;"/><ellipse cx="839.1" cy="301" rx="59.6" ry="59.6" fill="#492571" style="mix-blend-mode: difference;"/><ellipse cx="86.9" cy="1224.4" rx="59.6" ry="59.6" fill="#e9dc55" style="mix-blend-mode: difference;"/><ellipse rx="59.6" ry="59.6" fill="#492571" transform="translate(978.1,842.3) translate(-59.6,-59.6)" style="mix-blend-mode: difference; animation: 12s linear infinite both a1_t;"/><ellipse cx="111.6" cy="792.5" rx="59.6" ry="59.6" fill="#d94bbf" style="mix-blend-mode: difference;"/><ellipse rx="59.6" ry="59.6" fill="#e9dc55" transform="translate(838.9,0) translate(-59.6,-59.6)" style="mix-blend-mode: difference; animation: 12s linear infinite both a2_t;"/><ellipse cx="330.7" cy="540" rx="59.6" ry="59.6" fill="#d94bbf" style="mix-blend-mode: difference;"/><ellipse cx="1513" cy="2072.8" rx="59.6" ry="59.6" fill="#e9dc55" style="mix-blend-mode: difference;"/><ellipse cx="414.6" cy="729.3" rx="59.6" ry="59.6" fill="#492571" style="mix-blend-mode: difference;"/><ellipse cx="1084.4" cy="1834.3" rx="59.6" ry="59.6" fill="#e9dc55" style="mix-blend-mode: difference;"/><ellipse cx="1121.8" cy="704.7" rx="59.6" ry="59.6" fill="#e9dc55" style="mix-blend-mode: difference;"/><ellipse rx="59.6" ry="59.6" fill="#d94bbf" transform="translate(1242.7,506.9) translate(-59.6,-59.6)" style="mix-blend-mode: difference; animation: 12s linear infinite both a3_t;"/><ellipse cx="1358.3" cy="181" rx="10" ry="10" fill="#e9dc55" style="mix-blend-mode: difference;"/><path fill="#fff350" d="M143.6-55.3h-36.2l-10.2-12.2c-11.8 9.8-25.4 14.7-40.6 14.7c-13.5 0-24.7-3.9-33.4-11.8c-8.7-8-13-18.2-13-30.6c0-9.3 2.4-17.5 7.2-24.6c4.7-7.2 11.3-14.2 19.8-21.1c-11.5-14.3-17.3-27.8-17.3-40.4c0-11.7 3.8-21 11.3-27.8c7.5-6.9 17.3-10.3 29.3-10.3c12 0 21.6 3.4 28.8 10.3c7.1 6.8 10.7 15.4 10.7 25.7c0 8.3-2.3 16-6.8 23c-4.6 7-10.9 14.2-19.1 21.5l22 26.6c3.5-8.8 5.5-18.2 6-28.2h31.6c-2 18.5-8.1 35.7-18.2 51.5Zm-84.7-22.4c7.1 0 14.2-3.5 21.5-10.4l-26.3-32.3c-8.8 8.8-13.2 16.6-13.2 23.6c0 4.9 1.6 9.3 4.7 13.2c3.2 3.9 7.6 5.9 13.3 5.9Zm-11.3-102.7c0 6.8 3.5 14.4 10.6 22.8c9.2-8.1 13.9-16 13.9-23.5c0-4-1-7.4-3-10.3c-2-2.8-5-4.2-8.8-4.2c-4 0-7.1 1.5-9.4 4.5c-2.2 3-3.3 6.5-3.3 10.7Z" clip-rule="evenodd" fill-rule="evenodd" transform="translate(36,269.3)" style="mix-blend-mode: difference; animation: 12s linear infinite both a4_f;"/><path fill="#402f01" d="M-114.6-504.1c20.5 6.6 30.8 18 30.8 34.3c0 9.3-3.2 17-9.8 23c-6.5 6-16.1 9-28.7 9c-8.8 0-17.9-1.4-27.1-4.1c-9.3-2.8-16.9-6-22.7-9.5l13.2-24.8c4.6 2.7 10.3 5.2 17.1 7.5c6.9 2.3 12.1 3.5 15.8 3.5c3 0 4.5-1 4.5-2.9c0-0.8-0.3-1.4-0.7-2c-0.5-0.6-1.3-1.1-2.6-1.6c-1.3-0.6-2.5-1-3.5-1.3c-1.1-0.3-2.9-0.8-5.2-1.5c-2.4-0.7-4.3-1.3-5.9-1.8c-20.7-6.8-31-18.3-31-34.4c0-9.2 3.1-16.8 9.5-22.9c6.3-6 15.7-9.1 28-9.1c7.8 0 15.9 1.2 24.3 3.6c8.4 2.3 15.4 5 21 7.9l-12.9 23c-11.3-4.8-20.5-7.2-27.4-7.2c-3.3 0-5 1-5 3.2c0 .8 .3 1.4 .7 1.9c.5 .5 1.3 1 2.4 1.5c1.2 .4 2.3 .8 3.6 1.2c1.2 .4 2.9 .9 5.2 1.5c2.3 .7 4.4 1.3 6.4 2Zm124.5 21.8h-50.2c.3 5.5 1.2 9.5 2.8 12.1c1.6 2.5 4.3 3.8 8 3.8c5.8 0 15.4-3.5 28.5-10.5l13.1 23.6c-15.5 10.3-31 15.5-46.4 15.5c-13.2 0-23.8-4.3-31.8-12.9c-7.9-8.5-11.9-21.6-11.9-39.1c0-16.7 3.8-29.7 11.6-39c7.7-9.2 19-13.9 33.8-13.9c14.4 0 25.4 4.2 33 12.5c7.5 8.3 11.3 19.2 11.3 32.8c0 2.5-0.2 5.1-0.5 7.6c-0.3 2.6-0.6 4.5-0.9 5.8Zm-41.5-33.1c-2.9 0-4.9 1-6.2 3.1c-1.3 2.1-2.1 5.5-2.5 10.3h16.9c-0.1-4.5-0.8-7.9-2-10.1c-1.2-2.2-3.3-3.3-6.2-3.3Zm91.6-25.2v9.2c4.3-3.8 8.3-6.6 11.9-8.5c3.7-1.8 8.1-2.8 13.4-2.8c10.4 0 18.6 4.6 24.4 13.7c5.8 9.2 8.7 22.1 8.7 38.9c0 16.6-2.9 29.4-8.7 38.6c-5.8 9.1-14 13.7-24.4 13.7c-5.3 0-9.7-0.9-13.5-2.8c-3.7-1.9-7.6-4.7-11.8-8.5v48.3h-37.2v-139.8Zm11.7 29.2c-4 0-7.9 3.2-11.7 9.8v23c3.7 6.3 7.6 9.5 11.7 9.5c6 0 9-7.1 9-21.2c0-14.1-3-21.1-9-21.1Zm53.8-0.8v-28.4h10.9v-23.5l37.4-5.6v29.1h21.9v28.4h-21.9v31.8c0 5.7 1.8 8.5 5.4 8.5c1.6 0 4.8-1.2 9.4-3.5l12.4 28.4c-12.6 6.1-23.5 9.2-32.5 9.2c-11.4 0-19.6-3.4-24.6-10.1c-5-6.7-7.5-16.9-7.5-30.7v-33.6Zm165.4 29.9h-50.2c.3 5.5 1.2 9.5 2.8 12.1c1.6 2.5 4.2 3.8 7.9 3.8c5.9 0 15.4-3.5 28.6-10.5l13 23.6c-15.4 10.3-30.9 15.5-46.4 15.5c-13.1 0-23.7-4.3-31.7-12.9c-8-8.5-12-21.6-12-39.1c0-16.7 3.9-29.7 11.6-39c7.8-9.2 19.1-13.9 33.9-13.9c14.4 0 25.4 4.2 32.9 12.5c7.6 8.3 11.3 19.2 11.3 32.8c0 2.5-0.1 5.1-0.4 7.6c-0.3 2.6-0.6 4.5-0.9 5.8Zm-41.6-33.1c-2.8 0-4.8 1-6.1 3.1c-1.3 2.1-2.1 5.5-2.5 10.3h16.9c-0.2-4.5-0.8-7.9-2-10.1c-1.3-2.2-3.3-3.3-6.3-3.3Zm91.6-25.2v11.2c7.8-8.9 16.3-13.3 25.5-13.3c11.8 0 19.7 5.3 23.6 15.9c8.2-10.6 17.5-15.9 28-15.9c8.4 0 14.9 2.8 19.3 8.2c4.4 5.4 6.6 13.2 6.6 23.5v71.1h-37.2v-60.8c0-2.8-0.1-4.9-0.2-6.3c-0.1-1.4-0.6-2.7-1.3-3.8c-0.8-1.2-1.9-1.8-3.3-1.8c-3.5 0-6.6 2.5-9.4 7.5v65.2h-37.4v-60.8c0-2.9 0-5.1-0.2-6.4c-0.1-1.3-0.5-2.6-1.2-3.7c-0.7-1.2-1.8-1.8-3.4-1.8c-3.4 0-6.5 2.7-9.4 7.9v64.8h-37.1v-100.7Zm117.5 100.7v-139.8h37.2v48.3c4.4-3.8 8.4-6.6 12-8.5c3.6-1.8 8.1-2.8 13.3-2.8c10.5 0 18.6 4.6 24.5 13.7c5.8 9.2 8.7 22.1 8.7 38.9c0 16.6-2.9 29.4-8.7 38.6c-5.9 9.1-14 13.7-24.5 13.7c-5.2 0-9.7-0.9-13.4-2.8c-3.7-1.9-7.7-4.7-11.9-8.5v9.2Zm48.9-71.5c-3.9 0-7.8 3.2-11.7 9.8v23c3.7 6.3 7.6 9.5 11.7 9.5c6 0 9-7.1 9-21.2c0-14.1-3-21.1-9-21.1Zm142.2 29.1h-50.2c.3 5.5 1.2 9.5 2.8 12.1c1.6 2.5 4.2 3.8 8 3.8c5.8 0 15.4-3.5 28.5-10.5l13 23.6c-15.4 10.3-30.9 15.5-46.3 15.5c-13.2 0-23.8-4.3-31.8-12.9c-7.9-8.5-11.9-21.6-11.9-39.1c0-16.7 3.8-29.7 11.6-39c7.7-9.2 19-13.9 33.8-13.9c14.4 0 25.4 4.2 33 12.5c7.5 8.3 11.3 19.2 11.3 32.8c0 2.5-0.2 5.1-0.5 7.6c-0.3 2.6-0.6 4.5-0.9 5.8Zm-41.6-33.1c-2.8 0-4.8 1-6.1 3.1c-1.3 2.1-2.1 5.5-2.5 10.3h16.9c-0.1-4.5-0.8-7.9-2-10.1c-1.2-2.2-3.3-3.3-6.3-3.3Zm91.7-25.2v20.6c.9-2.3 1.9-4.5 3.1-6.7c1.2-2.1 3-4.5 5.3-7.2c2.3-2.8 5.4-4.9 9.2-6.3c3.8-1.4 8-1.9 12.6-1.5v36.8c-5.1 0-9.6 1.1-13.6 3.4c-3.9 2.2-6.9 4.9-8.9 8.1c-2 3.2-3.6 6.4-4.9 9.6c-1.2 3.2-2 5.9-2.3 8.2l-0.5 3.3v32.4h-37.2v-100.7Z" transform="translate(1053,605.7)" style="mix-blend-mode: screen; animation: 12s linear infinite both a5_f;"/><rect width="1325.4" height="1041" fill="#fff" transform="translate(2390,558) rotate(450) scale(1.102,1) translate(-662.7,-726)" style="mix-blend-mode: exclusion;"/><text x="1811.4" y="114" fill="#91881e" font-size="100" font-family="VerbExCond" font-weight="600" font-stretch="condensed" letter-spacing="0" word-spacing="0" style="line-height: 16px;">19</text></svg>