<svg xmlns="http://www.w3.org/2000/svg" width="100%" height="100%" viewBox="0 0 1920 1080" style="white-space: pre;"><style>
@keyframes a0_t { 0% { transform: translate(918.5px,782.7px); } 1.12% { transform: translate(964.6px,794.2px); } 2.24% { transform: translate(1010.9px,804.4px); } 4.479% { transform: translate(1104.2px,821.1px); } 8.958% { transform: translate(1292.9px,837.1px); } 17.917% { transform: translate(1666.9px,786.4px); } 26.875% { transform: translate(2004.9px,618.4px); } 31.354% { transform: translate(2151.3px,498.2px); } 33.594% { transform: translate(2218.4px,431.3px); } 34.714% { transform: translate(2250.5px,396.4px); } 35.833% { transform: translate(2281.6px,360.6px); } 58.333% { transform: translate(880.1px,321.2px); } 69.583% { transform: translate(182.4px,252.7px); } 75.208% { transform: translate(-160.6px,181.7px); } 78.021% { transform: translate(-321px,112.8px); } 79.427% { transform: translate(-375.1px,46.4px); } 80.13% { transform: translate(-371.3px,3.4px); } 80.482% { transform: translate(-361.3px,-16px); } 80.833% { transform: translate(-348.2px,-33.6px); } 100% { transform: translate(918.5px,782.7px); } }
@keyframes a1_t { 0% { transform: translate(779.2px,-59.6px); } 39.167% { transform: translate(3283.2px,-59.6px); } 70.833% { transform: translate(1355.4px,-675.6px); } 83.333% { transform: translate(-876.6px,-2.9px); } 100% { transform: translate(779.2px,-59.6px); } }
@keyframes a2_t { 0% { transform: translate(1183px,447.3px); } 37.5% { transform: translate(1183px,447.3px); } 37.812% { transform: translate(1167.1px,433.9px); } 38.125% { transform: translate(1151.8px,420px); } 38.75% { transform: translate(1122.5px,390.8px); } 40% { transform: translate(1068.8px,327.9px); } 42.5% { transform: translate(967.3px,197.2px); } 47.5% { transform: translate(701px,7.2px); } 52.5% { transform: translate(377.3px,-56.7px); } 55% { transform: translate(211.8px,-63.1px); } 56.25% { transform: translate(129px,-62.4px); } 57.5% { transform: translate(46.2px,-59.6px); } 73.333% { transform: translate(1795.7px,999.4px); } 100% { transform: translate(1183px,447.3px); } }
</style><rect width="1325.4" height="1452" transform="translate(1003.5,558) scale(1.617,1) translate(-662.7,-726)"/><ellipse cx="817.3" cy="1431.6" rx="59.6" ry="59.6" fill="#e9dc55"/><ellipse cx="457.2" cy="132.5" rx="59.6" ry="59.6" fill="#e9dc55"/><ellipse cx="554.8" cy="566.6" rx="59.6" ry="59.6" fill="#e9dc55"/><ellipse cx="687.2" cy="959" rx="59.6" ry="59.6" fill="#e9dc55"/><ellipse cx="-288.6" cy="164.6" rx="59.6" ry="59.6" fill="#e9dc55"/><ellipse cx="576.4" cy="401.6" rx="59.6" ry="59.6" fill="#e9dc55"/><ellipse cx="1513" cy="566.6" rx="59.6" ry="59.6" fill="#e9dc55"/><ellipse cx="1727.4" cy="566.6" rx="59.6" ry="59.6" fill="#e9dc55"/><ellipse cx="174.2" cy="401.6" rx="59.6" ry="59.6" fill="#e9dc55"/><ellipse cx="1703.8" cy="915.8" rx="59.6" ry="59.6" fill="#e9dc55"/><ellipse cx="495.2" cy="927.5" rx="59.6" ry="59.6" fill="#e9dc55"/><ellipse cx="1667.8" cy="506.9" rx="59.6" ry="59.6" fill="#e9dc55"/><ellipse cx="-229" cy="790.3" rx="59.6" ry="59.6" fill="#e9dc55"/><ellipse cx="671.9" cy="704.7" rx="59.6" ry="59.6" fill="#e9dc55"/><ellipse cx="1640.9" cy="401.6" rx="59.6" ry="59.6" fill="#e9dc55"/><ellipse cx="1855.4" cy="401.6" rx="59.6" ry="59.6" fill="#e9dc55"/><ellipse cx="46.2" cy="216.6" rx="59.6" ry="59.6" fill="#e9dc55"/><ellipse cx="1644.2" cy="927.5" rx="59.6" ry="59.6" fill="#e9dc55"/><ellipse cx="1272.2" cy="927.5" rx="59.6" ry="59.6" fill="#e9dc55"/><ellipse cx="174.2" cy="959" rx="59.6" ry="59.6" fill="#e9dc55"/><ellipse cx="839.1" cy="301" rx="59.6" ry="59.6" fill="#e9dc55"/><ellipse cx="86.9" cy="1224.4" rx="59.6" ry="59.6" fill="#e9dc55"/><ellipse rx="59.6" ry="59.6" fill="#e9dc55" transform="translate(978.1,842.3) translate(-59.6,-59.6)" style="animation: 12s linear infinite both a0_t;"/><ellipse cx="111.6" cy="792.5" rx="59.6" ry="59.6" fill="#e9dc55"/><ellipse rx="59.6" ry="59.6" fill="#e9dc55" transform="translate(838.9,0) translate(-59.6,-59.6)" style="animation: 12s linear infinite both a1_t;"/><ellipse cx="330.7" cy="540" rx="59.6" ry="59.6" fill="#e9dc55"/><ellipse cx="1513" cy="2072.8" rx="59.6" ry="59.6" fill="#e9dc55"/><ellipse cx="414.6" cy="729.3" rx="59.6" ry="59.6" fill="#e9dc55"/><ellipse cx="1084.4" cy="1834.3" rx="59.6" ry="59.6" fill="#e9dc55"/><ellipse cx="1121.8" cy="704.7" rx="59.6" ry="59.6" fill="#e9dc55"/><ellipse rx="59.6" ry="59.6" fill="#e9dc55" transform="translate(1242.7,506.9) translate(-59.6,-59.6)" style="animation: 12s linear infinite both a2_t;"/><ellipse cx="1358.3" cy="181" rx="59.6" ry="59.6" fill="#e9dc55"/><path fill="#fff350" d="M863.5 1028.5h-205.8l-57.7-69.5c-67.2 55.9-144.1 83.9-230.7 83.9c-76.9 0-140-22.5-189.4-67.5c-49.3-45-74-102.9-74-173.7c0-52.4 13.5-98.9 40.6-139.6c27.1-40.6 64.7-80.6 112.7-119.9c-65.5-81.3-98.3-157.7-98.3-229.4c0-66.4 21.4-119.1 64.3-157.9c42.8-38.9 98.3-58.4 166.4-58.4c68.2 0 122.6 19.5 163.2 58.4c40.7 38.8 61 87.6 61 146.1c0 47.2-12.9 90.7-38.7 130.4c-25.8 39.8-61.8 80.6-108.1 122.6l124.5 150.7c20.1-49.8 31.4-103.1 34.1-159.9h179.5c-11.3 104.9-45.8 202.3-103.5 292.3Zm-481-127.2c40.2 0 80.8-19.6 121.9-59l-149.5-183.5c-49.8 49.9-74.7 94.4-74.7 133.7c0 28 9 53.1 26.9 75.4c17.9 22.3 43 33.4 75.4 33.4Zm-64.3-583.3c0 38.5 20.1 81.8 60.3 129.8c52.5-46.3 78.7-90.9 78.7-133.7c0-22.7-5.7-42.1-17.1-58.3c-11.3-16.2-27.9-24.3-49.8-24.3c-22.7 0-40.4 8.6-53.1 25.6c-12.6 17-19 37.4-19 60.9Z" clip-rule="evenodd" fill-rule="evenodd" style="mix-blend-mode: difference;"/><path fill="#fff" d="M834 105.1c16.6 5.4 24.9 14.6 24.9 27.7c0 7.5-2.7 13.7-7.9 18.5c-5.3 4.8-13 7.3-23.2 7.3c-7.1 0-14.4-1.1-21.8-3.4c-7.5-2.2-13.6-4.7-18.3-7.6l10.6-19.9c3.7 2.1 8.3 4.1 13.8 6c5.6 1.8 9.8 2.8 12.8 2.8c2.4 0 3.5-0.8 3.5-2.3c0-0.7-0.1-1.2-0.5-1.7c-0.4-0.4-1.1-0.9-2.1-1.3c-1-0.4-2-0.7-2.8-1c-0.9-0.2-2.3-0.7-4.2-1.2c-1.9-0.6-3.5-1.1-4.7-1.5c-16.7-5.4-25-14.7-25-27.6c0-7.4 2.5-13.6 7.6-18.5c5.1-4.9 12.6-7.3 22.6-7.3c6.3 0 12.8 .9 19.6 2.8c6.7 1.9 12.3 4.1 16.9 6.4l-10.4 18.6c-9.1-3.9-16.5-5.9-22.1-5.9c-2.6 0-4 .9-4 2.6c0 .6 .2 1.2 .6 1.6c.3 .4 1 .8 1.9 1.1c.9 .4 1.9 .7 2.9 1c.9 .3 2.4 .8 4.2 1.3c1.9 .5 3.6 1 5.1 1.5Zm100.4 17.6h-40.5c.2 4.5 1 7.7 2.3 9.8c1.3 2 3.4 3 6.4 3c4.7 0 12.4-2.8 23-8.5l10.5 19c-12.5 8.4-24.9 12.6-37.4 12.6c-10.6 0-19.1-3.5-25.5-10.4c-6.5-6.9-9.7-17.4-9.7-31.5c0-13.5 3.1-24 9.3-31.4c6.3-7.5 15.4-11.2 27.3-11.2c11.6 0 20.5 3.3 26.6 10c6 6.7 9.1 15.5 9.1 26.4c0 2.1-0.1 4.1-0.4 6.2c-0.3 2.1-0.5 3.6-0.7 4.6Zm-33.5-26.7c-2.3 0-3.9 .9-5 2.6c-1 1.7-1.7 4.4-2 8.2h13.6c-0.1-3.6-0.6-6.3-1.6-8.1c-1-1.8-2.7-2.7-5-2.7Zm73.8-20.2v7.4c3.5-3.1 6.7-5.4 9.7-6.9c2.9-1.5 6.5-2.2 10.7-2.2c8.4 0 15 3.7 19.7 11c4.7 7.4 7 17.8 7 31.3c0 13.4-2.3 23.8-7 31.1c-4.7 7.4-11.3 11.1-19.7 11.1c-4.2 0-7.8-0.8-10.8-2.3c-3-1.5-6.2-3.8-9.6-6.9v39h-30v-112.6Zm9.4 23.4c-3.2 0-6.3 2.7-9.4 7.9v18.6c3 5.1 6.1 7.7 9.4 7.7c4.9 0 7.3-5.7 7.3-17.2c0-11.3-2.4-17-7.3-17Zm43.4-0.6v-22.8h8.8v-19l30.1-4.5v23.5h17.7v22.8h-17.7v25.7c0 4.5 1.5 6.8 4.4 6.8c1.3 0 3.8-1 7.5-2.8l10.1 22.8c-10.2 5-19 7.5-26.3 7.5c-9.1 0-15.7-2.7-19.8-8.2c-4-5.4-6-13.6-6-24.7v-27.1Zm133.3 24.1h-40.5c.2 4.5 1 7.7 2.3 9.8c1.3 2 3.4 3 6.4 3c4.7 0 12.4-2.8 23-8.5l10.5 19c-12.5 8.4-24.9 12.6-37.4 12.6c-10.6 0-19.1-3.5-25.5-10.4c-6.5-6.9-9.7-17.4-9.7-31.5c0-13.5 3.1-24 9.4-31.4c6.2-7.5 15.3-11.2 27.2-11.2c11.7 0 20.5 3.3 26.6 10c6.1 6.7 9.1 15.5 9.1 26.4c0 2.1-0.1 4.1-0.4 6.2c-0.2 2.1-0.5 3.6-0.7 4.6Zm-33.5-26.7c-2.3 0-3.9 .9-5 2.6c-1 1.7-1.7 4.4-2 8.2h13.6c-0.1-3.6-0.6-6.3-1.6-8.1c-1-1.8-2.6-2.7-5-2.7Zm73.8-20.2v8.9c6.3-7.1 13.2-10.6 20.6-10.6c9.4 0 15.8 4.2 19 12.8c6.6-8.6 14.1-12.8 22.5-12.8c6.8 0 12 2.2 15.5 6.5c3.6 4.4 5.4 10.7 5.4 19v57.3h-30v-49c0-2.3-0.1-4-0.2-5.1c-0.1-1.1-0.4-2.2-1-3.1c-0.7-0.9-1.5-1.4-2.7-1.4c-2.7 0-5.3 2-7.5 6v52.6h-30.1v-49c0-2.4-0.1-4.1-0.2-5.2c-0.1-1.1-0.4-2.1-1-3c-0.6-0.9-1.5-1.4-2.7-1.4c-2.8 0-5.3 2.1-7.6 6.4v52.2h-29.9v-81.1Zm94.7 81.1v-112.6h30v38.9c3.5-3.1 6.7-5.4 9.6-6.9c3-1.5 6.5-2.2 10.8-2.2c8.4 0 15 3.7 19.6 11c4.7 7.4 7.1 17.8 7.1 31.3c0 13.4-2.4 23.8-7.1 31.1c-4.6 7.4-11.2 11.1-19.6 11.1c-4.3 0-7.9-0.8-10.9-2.3c-2.9-1.5-6.1-3.8-9.5-6.9v7.5Zm39.4-57.7c-3.2 0-6.4 2.7-9.4 7.9v18.6c3 5.1 6.1 7.7 9.4 7.7c4.8 0 7.2-5.7 7.2-17.2c0-11.3-2.4-17-7.2-17Zm114.6 23.5h-40.5c.2 4.5 1 7.7 2.3 9.8c1.2 2 3.4 3 6.4 3c4.7 0 12.4-2.8 23-8.5l10.5 19c-12.5 8.4-24.9 12.6-37.4 12.6c-10.6 0-19.1-3.5-25.5-10.4c-6.5-6.9-9.7-17.4-9.7-31.5c0-13.5 3.1-24 9.3-31.4c6.3-7.5 15.4-11.2 27.3-11.2c11.6 0 20.5 3.3 26.6 10c6 6.7 9.1 15.5 9.1 26.4c0 2.1-0.1 4.1-0.4 6.2c-0.3 2.1-0.5 3.6-0.7 4.6Zm-33.5-26.7c-2.3 0-4 .9-5 2.6c-1 1.7-1.7 4.4-2 8.2h13.6c-0.1-3.6-0.6-6.3-1.6-8.1c-1-1.8-2.7-2.7-5-2.7Zm73.8-20.2v16.5c.7-1.9 1.6-3.6 2.5-5.3c1-1.7 2.4-3.7 4.3-5.9c1.8-2.2 4.3-3.9 7.4-5c3.1-1.2 6.5-1.6 10.2-1.3v29.7c-4.1 0-7.8 .9-11 2.7c-3.2 1.8-5.6 4-7.2 6.6c-1.5 2.5-2.9 5.1-3.9 7.7c-1 2.6-1.6 4.8-1.8 6.6l-0.5 2.7v26.1h-30v-81.1Z"/><rect x="52" y="26" width="1359" height="15"/><rect x="52" y="1059" width="1359" height="42"/><rect x="52" y="33.8" width="1359" height="21"/><rect width="1325.4" height="1041" fill="#fff" transform="translate(1861.5,558) rotate(450) scale(1.102,1) translate(-662.7,-726)" style="mix-blend-mode: exclusion;"/><text x="1571.6" y="262.1" font-size="274" font-family="VerbExCond" font-weight="800" font-stretch="condensed" letter-spacing="0" word-spacing="0" style="line-height: 16px;">19</text></svg>