<svg xmlns="http://www.w3.org/2000/svg" xmlns:xlink="http://www.w3.org/1999/xlink" viewBox="0 0 1920 1080"><style>
@keyframes a0_t { 0% { transform: translate(0px,0px); } 12.67% { transform: translate(0px,0px); } 17.647% { transform: translate(0px,0px); } 100% { transform: translate(0px,0px); } }
@keyframes a0_h { 0% { height: 755px; } 23.077% { height: 755px; } 26.697% { height: 239px; } 100% { height: 239px; } }
@keyframes a1_f { 0% { fill: #861818; } 3.62% { fill: #861818; } 18.552% { fill: #ff6363; } 100% { fill: #ff6363; } }
@keyframes a1_h { 0% { height: 1080px; } 17.647% { height: 441.4px; } 27.149% { height: 65px; } 100% { height: 65px; } }
@keyframes a2_t { 0% { transform: rotate(0deg) translate(-79.5px,-19.5px); } 36.199% { transform: rotate(1400deg) translate(-79.5px,-19.5px); } 100% { transform: rotate(1400deg) translate(-79.5px,-19.5px); } }
@keyframes a2_mo { 0% { offset-distance: 0%; } 36.199% { offset-distance: 100%; } 100% { offset-distance: 100%; } }
@keyframes a3_t { 0% { transform: rotate(0deg) translate(-79.5px,-19.5px); } 36.199% { transform: rotate(2400deg) translate(-79.5px,-19.5px); } 100% { transform: rotate(2400deg) translate(-79.5px,-19.5px); } }
@keyframes a3_mo { 0% { offset-distance: 0%; } 36.199% { offset-distance: 100%; } 100% { offset-distance: 100%; } }
@keyframes a4_t { 0% { transform: translate(215px,65px); } 22.624% { transform: translate(215px,65px); } 26.244% { transform: translate(49px,36.5px); } 100% { transform: translate(49px,36.5px); } }
@keyframes a4_w { 0% { width: 336.6px; } 22.172% { width: 336.6px; } 26.244% { width: 94px; } 100% { width: 94px; } }
@keyframes a4_h { 0% { height: 517.5px; } 22.172% { height: 517.5px; } 26.244% { height: 144.5px; } 100% { height: 144.5px; } }
@keyframes a5_t { 0% { transform: translate(133.4px,-360px); } 4.525% { transform: translate(-1970.6px,64px); } 57.919% { transform: translate(-1849.3px,-68.7px); } 100% { transform: translate(-1849.3px,-68.7px); } }
@keyframes a6_t { 0% { transform: translate(2068.6px,697.6px) rotate(33deg); } 4.525% { transform: translate(512.5px,218.6px) rotate(30.4deg); } 57.919% { transform: translate(-29px,-68.4px) rotate(0deg); } 100% { transform: translate(-29px,-68.4px) rotate(0deg); } }
</style><defs><symbol id="Symbol-1" preserveAspectRatio="none" width="122" height="187.5" viewBox="0 0 122 187.5" overflow="visible"><path d="M39.7 91.2c-2.6 1.5-5 3.1-7.2 5c-2.3 1.8-4.2 3.7-5.8 5.8c-1.6 2-2.9 4.2-3.8 6.5c-0.9 2.3-1.3 4.7-1.3 7.2c0 2.8 .4 5.4 1.3 7.9c.9 2.4 2.2 4.6 3.9 6.4c1.7 1.8 3.7 3.2 6.1 4.2c2.5 1.1 5.2 1.6 8.2 1.6c4.1 0 8-0.9 11.8-2.8c3.7-1.8 7.2-4 10.6-6.7c-2.3-2.5-4.6-5.2-6.7-8.1c-2.2-2.9-4.3-5.8-6.3-8.8c-1.9-3-3.8-6-5.6-9.1c-1.8-3.1-3.5-6.2-5.2-9.1Zm11.2-11.5c2.7-1.4 5.3-2.9 7.6-4.4c2.4-1.5 4.4-3.1 6.1-4.9c1.8-1.7 3.2-3.6 4.1-5.8c1-2.1 1.5-4.4 1.5-6.9c0-2.5-0.3-4.8-0.9-6.7c-0.7-2-1.6-3.6-2.7-5c-1.1-1.4-2.4-2.5-3.9-3.2c-1.5-0.7-3.1-1.1-4.8-1.1c-1.9 0-3.7 .5-5.3 1.5c-1.6 1-3 2.3-4.2 3.9c-1.2 1.6-2.1 3.3-2.8 5.3c-0.7 1.9-1 3.9-1 5.8c0 3.1 .6 6.6 1.7 10.3c1.1 3.8 2.7 7.5 4.6 11.2Zm45.4 7c-0.6 3.7-1.4 7-2.3 9.9c-0.9 3-2 5.7-3.3 8.3c-1.2 2.6-2.7 5.1-4.4 7.5c-1.7 2.5-3.6 5-5.8 7.8c4.1 4 7.8 7.2 11.4 9.6c3.6 2.4 6.9 3.6 9.9 3.6c3.9 0 7.2-0.8 10-2.3c2.8-1.6 5-4.3 6.6-8.2l3 1.1c-0.7 3.4-1.8 6.4-3.3 9c-1.6 2.6-3.4 4.8-5.7 6.6c-2.2 1.8-4.8 3.1-7.6 4c-2.9 .9-6 1.4-9.3 1.4c-4.3 0-8.7-1.2-13.2-3.6c-4.5-2.5-8.9-5.7-13.2-9.8c-5.1 4-10.7 7.2-16.7 9.7c-6 2.5-12.5 3.7-19.5 3.7c-4.9 0-9.1-0.5-12.5-1.6c-3.4-1.1-6.3-2.7-8.4-4.6c-2.2-2-3.8-4.4-4.9-7.2c-1-2.7-1.5-5.8-1.5-9.1c0-4.7 .9-8.9 2.7-12.6c1.8-3.7 4.2-7 7.1-9.9c3-2.9 6.3-5.5 10.1-7.8c3.7-2.2 7.6-4.3 11.5-6.3c-2.2-4.5-3.9-8.8-5.2-12.6c-1.2-3.9-1.9-7.1-1.9-9.8c0-3.4 .6-6.8 1.7-10c1.1-3.2 2.8-6.1 5.1-8.6c2.2-2.5 5.1-4.5 8.5-6c3.3-1.5 7.3-2.3 11.8-2.3c3.3 0 6.4 .5 9.4 1.5c2.9 .9 5.5 2.4 7.7 4.2c2.1 1.9 3.9 4.1 5.2 6.8c1.2 2.7 1.9 5.7 1.9 9.1c0 3.4-0.8 6.4-2.5 8.9c-1.6 2.6-3.7 4.9-6.3 6.9c-2.6 2-5.5 3.9-8.8 5.5c-3.4 1.7-6.7 3.3-10.1 5c2.7 5.1 6 10.2 9.8 15.3c3.8 5.1 8 10.1 12.4 15c5.2-5.9 9-11.3 11.6-16.2c2.6-5 4.3-9.3 5.1-13Z"/></symbol></defs><rect width="1920" height="755" fill="#ff6363" transform="translate(960,540) translate(-960,-540)" style="animation: 22.1s linear both a0_t, 22.1s linear both a0_h;"/><rect width="1920" height="1080" fill="#861818" style="animation: 22.1s linear both a1_f, 22.1s linear both a1_h;"/><rect width="120" height="24" transform=" translate(-79.5,-19.5)" style="animation: 22.1s linear both a2_t, 22.1s linear both a2_mo; offset-path: path('M2031.22,882.083C968.26,1196.77,-59.6959,508.625,-133.401,853.468L-133.401,853.468'); offset-rotate: 0deg;"/><rect width="120" height="24" fill="#921f1f" transform=" translate(-79.5,-19.5)" style="animation: 22.1s linear both a3_t, 22.1s linear both a3_mo; offset-path: path('M2859.21,267.044C1643.31,1002.46,-846.224,544.376,-655,160.422L-655,160.422'); offset-rotate: 0deg;"/><use width="336.6" height="517.5" xlink:href="#Symbol-1" transform="translate(276,158.8) translate(-61,-93.8)" style="animation: 22.1s linear both a4_t, 22.1s linear both a4_w, 22.1s linear both a4_h;"/><g clip-rule="evenodd" fill-rule="evenodd" stroke-linejoin="round" stroke-miterlimit="2" transform="translate(133.4,-360)" style="animation: 22.1s linear both a5_t;"><rect x="191" y="139.8" width="1687.4" height="75.5" fill="#fff"/></g><g clip-rule="evenodd" fill-rule="evenodd" stroke-linejoin="round" stroke-miterlimit="2" transform="translate(2068.6,697.6) rotate(33)" style="animation: 22.1s linear both a6_t;"><rect x="191" y="139.8" width="2188.4" height="75.5" fill="#fff"/></g></svg>