<?xml version="1.0" encoding="UTF-8" standalone="no"?>
<!DOCTYPE svg PUBLIC "-//W3C//DTD SVG 1.1//EN" "http://www.w3.org/Graphics/SVG/1.1/DTD/svg11.dtd">
<svg width="100%" height="100%" viewBox="0 0 1920 1080" version="1.1" xmlns="http://www.w3.org/2000/svg" xmlns:xlink="http://www.w3.org/1999/xlink" xml:space="preserve" xmlns:serif="http://www.serif.com/" style="fill-rule:evenodd;clip-rule:evenodd;stroke-linejoin:round;stroke-miterlimit:2;">
    <g transform="matrix(1,0,0,1,-267.234,1.82031)">
        <g id="Layer1">
            <path d="M1399.98,737.647L1257.18,571.748C1257.18,571.748 1201.4,341.115 1198.46,340.35C1195.51,339.584 1130.48,317.389 1130.48,317.389L1112.81,424.193L1049.11,352.233L1168.83,207.358L1075.43,109.076L836.186,169.889L875.826,336.381L649.662,570.17L632.631,803.717L809.834,922.584L1078.37,965.475L1199.98,836.365L1217.15,737.397L1480.2,914.811L1503.05,843.334L1399.98,737.647ZM973.92,447.537L1120.96,632.748L966.256,803.459L825.99,686.561L973.92,447.537ZM963.85,308.108L1060.45,206.623L981.662,168.436L920.451,207.1L963.85,308.108Z" style="fill:rgb(1,22,127);"/>
        </g>
    </g>
</svg>
