<?xml version="1.0" encoding="UTF-8" standalone="no"?>
<!-- Created with Keyshape -->
<svg xmlns="http://www.w3.org/2000/svg" xmlns:xlink="http://www.w3.org/1999/xlink" shape-rendering="geometricPrecision" text-rendering="geometricPrecision" viewBox="0 0 1920 1080" style="white-space: pre;">
    <style>
@keyframes full-screen_f { 0% { fill: #d636dc; } 18.408% { fill: #b50b33; } 19.403% { fill: #19e0eb; } 23.8806% { fill: #19e0eb; } 27.8607% { fill: #1ec9d2; } 28.8557% { fill: #3a3636; } 46.2687% { fill: #3a3636; } 47.7612% { fill: #af56b3; } 99.5025% { fill: #af56b3; } 100% { fill: #af56b3; } }
@keyframes skinny-half-line_t { 0% { transform: translate(946.928168px,829.31836px) rotate(181deg) translate(-249.868599px,-17px); } 2.985% { transform: translate(946.928168px,829.31836px) rotate(181deg) translate(-249.868599px,-17px); } 4.4776% { transform: translate(946.928168px,829.31836px) rotate(500deg) translate(-249.868599px,-17px); } 14.4278% { transform: translate(946.928168px,829.31836px) rotate(3790deg) translate(-249.868599px,-17px); } 62.6865% { transform: translate(946.928168px,829.31836px) rotate(181deg) translate(-249.868599px,-17px); } 65.6716% { transform: translate(946.928168px,829.31836px) rotate(181deg) translate(-249.868599px,-17px); } 67.1641% { transform: translate(946.928168px,829.31836px) rotate(500deg) translate(-249.868599px,-17px); } 69.1542% { transform: translate(946.928168px,829.31836px) rotate(2380deg) translate(-249.868599px,-17px); } 70.6467% { transform: translate(655.998142px,595.794384px) rotate(3790deg) translate(-249.868599px,-17px); } 72.6368% { transform: translate(268.091441px,284.429084px) rotate(3788.518519deg) translate(-249.868599px,-17px); } 84.0796% { transform: translate(258.669403px,247.429077px) rotate(3780deg) translate(-249.868599px,-17px); } 100% { transform: translate(258.669403px,247.429077px) rotate(3780deg) translate(-249.868599px,-17px); } }
@keyframes skinny-half-line-2_t { 0% { transform: translate(1557px,244px) rotate(181deg) translate(-248.298714px,-15px); } 2.4875% { transform: translate(1557px,244px) rotate(181deg) translate(-248.298714px,-15px); } 5.4726% { transform: translate(1557px,244px) rotate(181deg) translate(-248.298714px,-15px); } 6.9651% { transform: translate(1557px,244px) rotate(500deg) translate(-248.298714px,-15px); } 10.4477% { transform: translate(1557px,244px) rotate(3790deg) translate(-248.298714px,-15px); } 41.791% { transform: translate(1557px,244px) rotate(181deg) translate(-248.298714px,-15px); } 44.7761% { transform: translate(1557px,244px) rotate(181deg) translate(-248.298714px,-15px); } 46.2686% { transform: translate(1557px,244px) rotate(500deg) translate(-248.298714px,-15px); } 49.7512% { transform: translate(1557px,244px) rotate(3790deg) translate(-248.298714px,-15px); } 68.6567% { transform: translate(1557px,244px) rotate(3784.492754deg) translate(-248.298714px,-15px); } 71.1442% { transform: translate(855.246717px,181.822806px) rotate(3783.768116deg) translate(-248.298714px,-15px); } 78.1094% { transform: translate(273.237574px,70.001831px) rotate(3781.73913deg) translate(-248.298714px,-15px); } 84.0796% { transform: translate(260.239297px,61.001831px) rotate(3780deg) translate(-248.298714px,-15px); } 100% { transform: translate(260.239297px,61.001831px) rotate(3780deg) translate(-248.298714px,-15px); } }
@keyframes skinny-half-line-3_t { 0% { transform: translate(361.475px,499px) rotate(181deg) translate(-147.752588px,-30px); } 7.4626% { transform: translate(361.475px,499px) rotate(181deg) translate(-147.752588px,-30px); } 10.4477% { transform: translate(361.475px,499px) rotate(181deg) translate(-147.752588px,-30px); } 11.9402% { transform: translate(361.475px,499px) rotate(500deg) translate(-147.752588px,-30px); } 15.4228% { transform: translate(361.475px,499px) rotate(3790deg) translate(-147.752588px,-30px); } 21.8905% { transform: translate(361.475px,499px) rotate(181deg) translate(-147.752588px,-30px); } 24.8756% { transform: translate(361.475px,499px) rotate(181deg) translate(-147.752588px,-30px); } 26.3681% { transform: translate(361.475px,499px) rotate(500deg) translate(-147.752588px,-30px); } 29.8507% { transform: translate(361.475px,499px) rotate(3790deg) translate(-147.752588px,-30px); } 100% { transform: translate(361.475px,499px) rotate(3790deg) translate(-147.752588px,-30px); } }
@keyframes skinny-full-line_t { 0% { transform: translate(903px,994.5px) rotate(12deg) translate(-968px,25.5px); } 1.4925% { transform: translate(903px,229.172424px) rotate(12deg) translate(-968px,25.5px); } 4.4776% { transform: translate(903px,37.840515px) rotate(12deg) translate(-968px,25.5px); } 21.393% { transform: translate(903px,819.94043px) rotate(12deg) translate(-968px,25.5px); } 36.3184% { transform: translate(903px,550.028564px) rotate(12deg) translate(-968px,25.5px); } 69.6517% { transform: translate(903px,832.5px) rotate(12deg) translate(-968px,25.5px); } 99.5024% { transform: translate(903px,994.5px) rotate(12deg) translate(-968px,25.5px); } 100% { transform: translate(903px,994.5px) rotate(12deg) translate(-968px,25.5px); } }
@keyframes skinny-full-line-2_t { 0% { transform: translate(0px,1020px); animation-timing-function: cubic-bezier(0,0,1,1); } 6.9651% { transform: translate(0px,267.944519px); animation-timing-function: cubic-bezier(0,0,1,1); } 10.4477% { transform: translate(0px,-108.045654px); animation-timing-function: cubic-bezier(0,0,1,1); } 13.9303% { transform: translate(0px,89.542729px); animation-timing-function: cubic-bezier(0,0,1,1); } 32.8358% { transform: translate(0px,900.504494px); animation-timing-function: cubic-bezier(0,0,1,1); } 41.791% { transform: translate(0px,924.914917px); animation-timing-function: cubic-bezier(0,0,1,1); } 46.2686% { transform: translate(0px,880.934937px); animation-timing-function: cubic-bezier(0,0,1,1); } 48.5074% { transform: translate(0px,859.19458px); animation-timing-function: cubic-bezier(0,0,1,1); } 49.6268% { transform: translate(0px,848.236206px); animation-timing-function: cubic-bezier(0,0,1,1); } 50.7462% { transform: translate(0px,845.44043px); } 52.7363% { transform: translate(0px,113.452209px); } 65.6716% { transform: translate(0px,575.528564px); } 67.6616% { transform: translate(0px,858px); } 78.1094% { transform: translate(0px,911.15625px); } 88.0597% { transform: translate(0px,244.78125px); } 99.5024% { transform: translate(0px,1020px); } 100% { transform: translate(0px,1020px); } }
@keyframes C_t { 0% { transform: translate(321px,652.207031px); } 9.9502% { transform: translate(63px,292.207031px); } 16.4179% { transform: translate(83.962502px,321.457031px); } 85.0746% { transform: translate(83.9625px,321.457px); } 89.5522% { transform: translate(321px,652.207031px); } 100% { transform: translate(321px,652.207031px); } }
@keyframes C_f { 0% { fill: #000000; } 2.4876% { fill: #dbbe16; } 19.9005% { fill: #dbbe16; } 24.3781% { fill: #be2424; } 63.6816% { fill: #be2424; } 67.1642% { fill: #000000; } 100% { fill: #a89f5e; } }
@keyframes o_t { 0% { transform: translate(761px,652.207031px); } 9.9502% { transform: translate(248px,292.207031px); } 16.4179% { transform: translate(190.962502px,318.419544px); } 85.0746% { transform: translate(190.963px,318.42px); } 89.5522% { transform: translate(761px,652.207031px); } 100% { transform: translate(761px,652.207031px); } }
@keyframes o_f { 0% { fill: #000000; } 34.3284% { fill: #000000; } 36.8159% { fill: #dbbe16; } 54.2289% { fill: #dbbe16; } 58.7065% { fill: #be2424; } 98.01% { fill: #be2424; } 100% { fill: #510f0f; } }
@keyframes d_t { 0% { transform: translate(1179px,652.207031px); } 9.9502% { transform: translate(921px,292.207031px); } 16.4179% { transform: translate(292.947494px,318.419548px); } 85.0746% { transform: translate(292.947px,318.42px); } 89.5522% { transform: translate(1179px,652.207031px); } 100% { transform: translate(1179px,652.207031px); } }
@keyframes d_f { 0% { fill: #000000; } 22.8856% { fill: #000000; } 25.3731% { fill: #dbbe16; } 42.7861% { fill: #dbbe16; } 47.2637% { fill: #be2424; } 86.5672% { fill: #be2424; } 90.0498% { fill: #000000; } 100% { fill: #33301c; } }
@keyframes e_t { 0% { transform: translate(1539px,652.207031px); } 3.98% { transform: translate(1435.8px,508.207031px); } 9.9502% { transform: translate(1281px,292.207031px); } 16.4179% { transform: translate(201.343292px,318.419543px); } 85.0746% { transform: translate(201.343px,318.42px); } 89.5522% { transform: translate(1539px,652.207031px); } 100% { transform: translate(1539px,652.207031px); } }
@keyframes e_f { 0% { fill: #be2424; } 18.408% { fill: #be2424; } 21.8905% { fill: #000000; } 55.2239% { fill: #aba15f; } 64.6766% { fill: #000000; } 67.1642% { fill: #dbbe16; } 84.5771% { fill: #c44421; } 89.0547% { fill: #be2424; } 100% { fill: #be2424; } }
    </style>
    <rect id="full-screen" width="1920" height="1080" fill="#d636dc" stroke="none" transform="translate(960,540) translate(-960,-540)" style="animation: 20.1s linear infinite both full-screen_f;"/>
    <rect id="skinny-half-line" width="397.621" height="17" fill="#91ffbc" stroke="none" transform="translate(946.928,829.318) rotate(181) translate(-249.869,-17)" style="animation: 20.1s linear infinite both skinny-half-line_t;"/>
    <rect id="skinny-half-line-2" width="396.051" height="15" fill="#91ffbc" stroke="none" transform="translate(1557,244) rotate(181) translate(-248.299,-15)" style="animation: 20.1s linear infinite both skinny-half-line-2_t;"/>
    <rect id="skinny-half-line-3" width="295.505" height="30" fill="#ffffff" stroke="none" transform="translate(361.475,499) rotate(181) translate(-147.753,-30)" style="animation: 20.1s linear infinite both skinny-half-line-3_t;"/>
    <rect id="skinny-full-line" width="2050" height="30" fill="#ff9191" stroke="none" transform="translate(903,994.5) rotate(12) translate(-968,25.5)" style="animation: 20.1s linear infinite both skinny-full-line_t;"/>
    <rect id="skinny-full-line-2" width="1920" height="30" fill="#ff9191" stroke="none" transform="translate(903,994.5) translate(-903,25.5)" style="animation: 20.1s linear infinite both skinny-full-line-2_t;"/>
    <path id="C" fill="#000000" stroke="none" d="M111.449,-124.188C110.19,-105.025,100.608,-95.4428,82.7039,-95.4428L53.8236,-95.4428C45.9512,-95.4428,39.1922,-98.2657,33.5466,-103.911C27.9009,-109.557,25.0781,-116.316,25.0781,-124.188L25.0781,-196.254C25.0781,-203.992,27.8559,-210.717,33.4116,-216.43C38.9673,-222.143,45.7713,-225,53.8236,-225L82.7039,-225C100.788,-225,110.37,-215.418,111.449,-196.254L97.0093,-196.254C95.8848,-205.792,91.1165,-210.56,82.7039,-210.56L68.2638,-210.56C64.3051,-210.56,60.9088,-209.154,58.0747,-206.343C55.2406,-203.531,53.8236,-200.168,53.8236,-196.254L53.8236,-124.188C53.8236,-120.32,55.2294,-116.968,58.041,-114.134C60.8525,-111.3,64.2602,-109.883,68.2638,-109.883L82.7039,-109.883C91.1614,-109.883,95.9297,-114.652,97.0093,-124.188Z" transform="translate(321,652.207)" style="animation: 20.1s linear infinite both C_t, 20.1s linear infinite both C_f;"/>
    <path id="o" fill="#000000" stroke="none" d="M54.4976,-225L84.055,-225C92.112,-225,99.0293,-222.1,104.808,-216.298C110.586,-210.497,113.475,-203.591,113.475,-195.58L113.475,-121.825C113.475,-113.86,110.586,-106.966,104.808,-101.142C99.0293,-95.3172,92.112,-92.4054,84.055,-92.4054L54.4976,-92.4054C46.4405,-92.4054,39.523,-95.2941,33.7451,-101.073C27.9671,-106.85,25.0781,-113.768,25.0781,-121.825L25.0781,-195.58C25.0781,-203.637,27.9671,-210.555,33.7451,-216.333C39.523,-222.111,46.4405,-225,54.4976,-225ZM54.4976,-195.58L54.4976,-121.825C54.4976,-117.865,55.9363,-114.435,58.8138,-111.535C61.6913,-108.635,65.1788,-107.184,69.2763,-107.184C73.3738,-107.184,76.8613,-108.635,79.7389,-111.535C82.6165,-114.435,84.055,-117.865,84.055,-121.825L84.055,-195.58C84.055,-199.586,82.5934,-203.028,79.6699,-205.905C76.7463,-208.782,73.2817,-210.221,69.2763,-210.221C65.2248,-210.221,61.7489,-208.782,58.8483,-205.905C55.9478,-203.028,54.4976,-199.586,54.4976,-195.58Z" transform="translate(761,652.207)" style="animation: 20.1s linear infinite both o_t, 20.1s linear infinite both o_f;"/>
    <path id="d" fill="#000000" stroke="none" d="M25.0781,-92.4054L25.0781,-225L84.055,-225C92.112,-225,99.0293,-222.1,104.808,-216.298C110.586,-210.497,113.475,-203.591,113.475,-195.58L113.475,-121.825C113.475,-113.86,110.586,-106.966,104.808,-101.142C99.0293,-95.3172,92.112,-92.4054,84.055,-92.4054ZM54.4975,-107.184L69.2763,-107.184C73.3738,-107.184,76.8613,-108.635,79.7389,-111.535C82.6165,-114.435,84.055,-117.865,84.055,-121.825L84.055,-195.58C84.055,-199.586,82.5934,-203.028,79.6699,-205.905C76.7463,-208.782,73.2817,-210.221,69.2763,-210.221L54.4975,-210.221Z" transform="translate(1179,652.207)" style="animation: 20.1s linear infinite both d_t, 20.1s linear infinite both d_f;"/>
    <path id="e" fill="#be2424" stroke="none" d="M212.872,-225L307.269,-225L307.195,-210.221L260.07,-180.802L275.852,-180.802C284.85,-180.802,292.335,-177.568,298.309,-171.099C304.282,-164.63,307.269,-158.058,307.269,-151.382L307.269,-121.825C307.269,-113.767,304.16,-106.85,297.94,-101.073C291.72,-95.294,284.358,-92.4053,275.852,-92.4053L244.289,-92.4053C225.754,-92.4053,215.281,-102.211,212.872,-121.825L228.654,-121.825C229.391,-112.064,234.603,-107.184,244.289,-107.184L260.07,-107.184C264.347,-107.184,268.047,-108.622,271.169,-111.5C274.292,-114.378,275.852,-117.82,275.852,-121.825L275.852,-151.382C275.852,-153.684,274.537,-156.7,271.907,-160.429C269.276,-164.158,265.331,-166.023,260.07,-166.023L228.654,-166.023L228.654,-180.802L275.852,-210.221L212.872,-210.221Z" transform="translate(1539,652.207)" style="animation: 20.1s linear infinite both e_t, 20.1s linear infinite both e_f;"/>
</svg>
