<?xml version="1.0" encoding="UTF-8" standalone="no"?>
<!-- Created with Keyshape -->
<svg xmlns="http://www.w3.org/2000/svg" xmlns:xlink="http://www.w3.org/1999/xlink" viewBox="0 0 250 200">
    <style>
@keyframes and-rect_t { 0% { transform: translate(-49px,-65.9px); } 49.2307% { transform: translate(-49px,-65.9px); } 56.923% { transform: translate(-49px,-27.8px); } 89.2307% { transform: translate(-49px,-27.8px); } 95.3846% { transform: translate(-49px,-62.9px); } 100% { transform: translate(-49px,-62.9px); } }
@keyframes and-rect_f { 0% { fill: none; } 47.6923% { fill: none; } 52.3077% { fill: #ffffff; animation-timing-function: cubic-bezier(0.42,0,0.58,1); } 56.9231% { fill: #ffffff; animation-timing-function: cubic-bezier(0.42,0,0.58,1); } 61.5385% { fill: #ffffff; animation-timing-function: cubic-bezier(0.42,0,0.58,1); } 66.1538% { fill: #ffc942; animation-timing-function: cubic-bezier(0.42,0,0.58,1); } 76.9231% { fill: #ffc942; animation-timing-function: cubic-bezier(0.42,0,0.58,1); } 81.5385% { fill: #ffffff; animation-timing-function: cubic-bezier(0.42,0,0.58,1); } 87.6923% { fill: #ffffff; } 93.8462% { fill: none; } 100% { fill: none; } }
@keyframes and-outside_f { 0% { fill: #ffffff; } 64.6154% { fill: #ffffff; animation-timing-function: cubic-bezier(0.42,0,0.58,1); } 76.9231% { fill: #000000; animation-timing-function: cubic-bezier(0.42,0,0.58,1); } 86.1538% { fill: #000000; } 100% { fill: #000000; } }
@keyframes and-bottom_f { 0% { fill: #ffffff; } 27.6923% { fill: #ffffff; animation-timing-function: cubic-bezier(0.42,0,0.58,1); } 35.3846% { fill: #ffffff; animation-timing-function: cubic-bezier(0.42,0,0.58,1); } 40% { fill: #1be0e0; animation-timing-function: cubic-bezier(0.42,0,0.58,1); } 47.6923% { fill: #1be0e0; animation-timing-function: cubic-bezier(0.42,0,0.58,1); } 52.3077% { fill: #ffffff; animation-timing-function: cubic-bezier(0.42,0,0.58,1); } 72.3077% { fill: #ffffff; } 100% { fill: #ffffff; } }
@keyframes and-top_f { 0% { fill: #ffffff; animation-timing-function: cubic-bezier(0.42,0,0.58,1); } 9.2308% { fill: #ffffff; animation-timing-function: cubic-bezier(0.42,0,0.58,1); } 13.8462% { fill: #f45252; animation-timing-function: cubic-bezier(0.42,0,0.58,1); } 24.6154% { fill: #f45252; animation-timing-function: cubic-bezier(0.42,0,0.58,1); } 29.2308% { fill: #ffffff; animation-timing-function: cubic-bezier(0.42,0,0.58,1); } 41.5385% { fill: #ffffff; } 100% { fill: #ffffff; } }
@keyframes and-outside-2_o { 0% { opacity: 0; } 55.3846% { opacity: 0; animation-timing-function: cubic-bezier(0.42,0,0.58,1); } 58.4615% { opacity: 1; animation-timing-function: cubic-bezier(0.42,0,0.58,1); } 76.9231% { opacity: 1; animation-timing-function: cubic-bezier(0.42,0,0.58,1); } 81.5385% { opacity: 0; } 100% { opacity: 0; } }
@keyframes and-outside-2_f { 0% { fill: #ffffff; } 61.5385% { fill: #ffffff; animation-timing-function: cubic-bezier(0.42,0,0.58,1); } 66.1538% { fill: #f133b1; animation-timing-function: cubic-bezier(0.42,0,0.58,1); } 76.9231% { fill: #f133b1; animation-timing-function: cubic-bezier(0.42,0,0.58,1); } 81.5385% { fill: #ffffff; } 100% { fill: #ffffff; } }
@keyframes and-outside-2_ft { 0% { filter: none; } 76.9231% { filter: none; } 100% { filter: none; } }
    </style>
    <title>Group 8</title>
    <desc>Created with Sketch.</desc>
    <g id="at" display="none" transform="translate(545.811,100) translate(-72.6,-86.5)">
        <path id="Path" d="M475.222,168C480.822,168,486.189,167.3,491.322,165.9C496.455,164.5,500.155,163.133,502.422,161.8L505.822,159.6L512.022,168.4C511.089,169.2,509.655,170.167,507.722,171.3C505.789,172.433,501.589,173.967,495.122,175.9C488.655,177.833,481.756,178.8,474.422,178.8C454.022,178.8,437.489,170.7,424.822,154.5C412.155,138.3,405.822,117.6,405.822,92.4C405.822,66.7999,412.489,45.9667,425.822,29.9C439.156,13.8333,457.289,5.8,480.222,5.8C502.622,5.8,519.989,13.7333,532.322,29.6C544.656,45.4667,550.889,66.3332,551.022,92.2C551.022,99.9334,550.455,107.033,549.322,113.5C548.189,119.967,546.389,126,543.922,131.6C541.455,137.2,537.922,141.567,533.322,144.7C528.722,147.833,523.222,149.4,516.822,149.4C512.689,149.4,509.022,148.6,505.822,147C502.622,145.4,500.089,143.3,498.222,140.7C496.355,138.1,494.955,135.533,494.022,133C493.089,130.467,492.422,127.867,492.022,125.2C484.289,134,475.622,138.4,466.022,138.4C458.155,138.4,451.789,135.767,446.922,130.5C442.055,125.233,439.622,117.867,439.622,108.4C439.622,98.8,442.222,91.3667,447.422,86.1C452.622,80.8333,459.355,78.2,467.622,78.2C471.089,78.2,479.155,79.6667,491.822,82.6L491.822,74.8C491.822,69.2,490.889,65.2667,489.022,63C487.155,60.7333,483.955,59.6,479.422,59.6C471.822,59.6,462.756,62.0666,452.222,67L444.822,50.8C459.622,44.5333,472.555,41.4,483.622,41.4C494.156,41.4,501.822,44.0666,506.622,49.4C511.422,54.7334,513.822,63.3333,513.822,75.2L513.822,107.2C513.822,116.533,514.355,123.433,515.422,127.9C516.489,132.367,518.955,134.6,522.822,134.6C527.755,134.6,531.889,131,535.222,123.8C538.555,116.6,540.222,105.8,540.222,91.4C540.222,69.6666,535.089,51.8001,524.822,37.8C514.555,23.7999,499.689,16.8,480.222,16.8C460.089,16.8,444.456,23.8999,433.322,38.1C422.189,52.3001,416.622,70.3999,416.622,92.4C416.622,114.533,421.922,132.667,432.522,146.8C443.122,160.933,457.355,168,475.222,168Z" transform="translate(-405.822,-5.8)"/>
        <path id="Path-2" d="M473.222,120.2C478.956,120.2,485.155,116.6,491.822,109.4L491.822,94.8C483.289,92.6667,477.689,91.6,475.022,91.6C466.489,91.6,462.222,96.6,462.222,106.6C462.222,115.667,465.889,120.2,473.222,120.2Z" transform="translate(-405.822,-5.8)"/>
    </g>
    <g id="or" display="none" transform="translate(325.9,100) translate(-84.1422,-54.7)">
        <path id="Path-3" d="M251.769,50.2C259.369,59.8,263.169,73.2666,263.169,90.6C263.169,107.933,259.369,121.367,251.769,130.9C244.169,140.433,233.169,145.2,218.769,145.2C204.369,145.2,193.369,140.433,185.769,130.9C178.169,121.367,174.369,107.933,174.369,90.6C174.369,73.2666,178.169,59.8,185.769,50.2C193.369,40.6,204.369,35.8,218.769,35.8C233.169,35.8,244.169,40.6,251.769,50.2Z" transform="translate(-174.369,-35.8)"/>
        <path id="Path-4" d="M239.369,90.6C239.369,66.8665,232.502,55,218.769,55C205.169,55,198.369,66.8665,198.369,90.6C198.369,114.2,205.169,126,218.769,126C232.502,126,239.369,114.2,239.369,90.6Z" transform="translate(-174.369,-35.8)"/>
        <path id="Path-5" d="M310.453,38L310.453,60C311.253,58,312.22,55.9667,313.353,53.9C314.487,51.8333,316.287,49.2333,318.753,46.1C321.22,42.9667,324.553,40.5333,328.753,38.8C332.953,37.0667,337.587,36.4,342.653,36.8L342.653,60.2C338.653,60.2,335.02,60.8,331.753,62C328.487,63.2,325.753,64.8,323.553,66.8C321.353,68.8,319.42,70.9667,317.753,73.3C316.087,75.6333,314.82,77.9667,313.953,80.3C313.087,82.6333,312.353,84.8,311.753,86.8C311.153,88.8,310.787,90.4,310.653,91.6L310.453,93.4L310.453,143L286.853,143L286.853,38L310.453,38Z" transform="translate(-174.369,-35.8)"/>
    </g>
    <g id="and" transform="translate(125.389,100) translate(-57.8,-72.2)">
        <rect id="and-rect" width="200" height="200" fill="none" stroke="none" fill-opacity="1" opacity="1" transform="translate(51,34.1) translate(-100,-100)" style="mix-blend-mode: normal; animation: 6.5s linear both and-rect_t, 6.5s linear both and-rect_f;"/>
        <path id="and-outside" d="M115.8,143L84.4,143L75.6,132.4C65.3333,140.933,53.6001,145.2,40.4,145.2C28.6666,145.2,19.0334,141.767,11.5,134.9C3.96663,128.033,0.2,119.2,0.2,108.4C0.2,100.4,2.26665,93.3,6.4,87.1C10.5334,80.9,16.2666,74.8,23.6,68.8C13.5999,56.3999,8.6,44.7334,8.6,33.8C8.6,23.6666,11.8666,15.6334,18.4,9.7C24.9334,3.76664,33.3999,0.8,43.8,0.8C54.2001,0.8,62.5,3.76664,68.7,9.7C74.9,15.6334,78,23.0666,78,32C78,39.2,76.0334,45.8333,72.1,51.9C68.1666,57.9667,62.6667,64.2,55.6,70.6L74.6,93.6C77.6667,86,79.4,77.8667,79.8,69.2L107.2,69.2C105.467,85.2001,100.2,100.067,91.4,113.8L115.8,143Z" fill="#ffffff" transform="translate(-0.2,-0.8)" style="animation: 6.5s linear both and-outside_f;"/>
        <path id="and-bottom" d="M42.4,123.6C48.5334,123.6,54.7333,120.6,61,114.6L38.2,86.6C30.6,94.2,26.8,101,26.8,107C26.8,111.267,28.1667,115.1,30.9,118.5C33.6333,121.9,37.4666,123.6,42.4,123.6Z" fill="#ffffff" transform="translate(-0.2,-0.8)" style="animation: 6.5s linear both and-bottom_f;"/>
        <path id="and-top" d="M32.6,34.6C32.6,40.4667,35.6666,47.0666,41.8,54.4C49.8,47.3333,53.8,40.5334,53.8,34C53.8,30.5333,52.9333,27.5667,51.2,25.1C49.4667,22.6333,46.9334,21.4,43.6,21.4C40.1333,21.4,37.4333,22.7,35.5,25.3C33.5667,27.9,32.6,31,32.6,34.6Z" fill="#ffffff" transform="translate(-0.2,-0.8)" style="animation: 6.5s linear both and-top_f;"/>
        <path id="and-outside-2" d="M115.8,143L84.4,143L75.6,132.4C65.3333,140.933,53.6001,145.2,40.4,145.2C28.6666,145.2,19.0334,141.767,11.5,134.9C3.96663,128.033,0.2,119.2,0.2,108.4C0.2,100.4,2.26665,93.3,6.4,87.1C10.5334,80.9,16.2666,74.8,23.6,68.8C13.5999,56.3999,8.6,44.7334,8.6,33.8C8.6,23.6666,11.8666,15.6334,18.4,9.7C24.9334,3.76664,33.3999,0.8,43.8,0.8C54.2001,0.8,62.5,3.76664,68.7,9.7C74.9,15.6334,78,23.0666,78,32C78,39.2,76.0334,45.8333,72.1,51.9C68.1666,57.9667,62.6667,64.2,55.6,70.6L74.6,93.6C77.6667,86,79.4,77.8667,79.8,69.2L107.2,69.2C105.467,85.2001,100.2,100.067,91.4,113.8L115.8,143Z" fill="#ffffff" opacity="0" filter="none" transform="translate(-0.2,-0.8)" style="mix-blend-mode: darken; animation: 6.5s linear both and-outside-2_o, 6.5s linear both and-outside-2_f, 6.5s linear both and-outside-2_ft;"/>
    </g>
</svg>
